<?xml version="1.0" encoding="UTF-8"?>
<svg xmlns="http://www.w3.org/2000/svg" xmlns:xlink="http://www.w3.org/1999/xlink" viewBox="0 0 836.7 753.32">
  <defs>
    <style>
      .cls-1 {
        fill: url(#linear-gradient-2);
      }

      .cls-2 {
        fill: url(#linear-gradient-14);
      }

      .cls-3 {
        fill: url(#linear-gradient-6);
      }

      .cls-4 {
        fill: url(#linear-gradient-11);
      }

      .cls-5 {
        fill: url(#linear-gradient-10);
      }

      .cls-6 {
        fill: url(#linear-gradient-5);
      }

      .cls-7 {
        fill: url(#linear-gradient-7);
      }

      .cls-8 {
        fill: url(#linear-gradient-9);
      }

      .cls-9 {
        fill: url(#linear-gradient-3);
      }

      .cls-10 {
        fill: url(#linear-gradient);
      }

      .cls-11 {
        fill: url(#linear-gradient-4);
      }

      .cls-12 {
        fill: url(#linear-gradient-8);
      }

      .cls-13 {
        fill: url(#linear-gradient-12);
      }

      .cls-14 {
        fill: url(#linear-gradient-13);
      }
    </style>
    <linearGradient id="linear-gradient" x1="311.36" y1="442.73" x2="358.82" y2="442.73" gradientUnits="userSpaceOnUse">
      <stop offset="0" stop-color="#fd0576"/>
      <stop offset=".08" stop-color="#f20585"/>
      <stop offset=".34" stop-color="#d506b3"/>
      <stop offset=".56" stop-color="#c007d5"/>
      <stop offset=".75" stop-color="#b307e9"/>
      <stop offset=".88" stop-color="#af08f1"/>
    </linearGradient>
    <linearGradient id="linear-gradient-2" x1="195.51" y1="172.7" x2="190.73" y2="534.65" gradientUnits="userSpaceOnUse">
      <stop offset="0" stop-color="#ff7b00"/>
      <stop offset=".86" stop-color="#f71410"/>
    </linearGradient>
    <linearGradient id="linear-gradient-3" x1="12.83" y1="441.03" x2="237.57" y2="441.03" gradientUnits="userSpaceOnUse">
      <stop offset="0" stop-color="#073df8"/>
      <stop offset=".19" stop-color="#056bf8"/>
      <stop offset=".41" stop-color="#0499f9"/>
      <stop offset=".61" stop-color="#03bbfa"/>
      <stop offset=".77" stop-color="#03cffa"/>
      <stop offset=".88" stop-color="#03d7fb"/>
    </linearGradient>
    <linearGradient id="linear-gradient-4" x1="124.08" y1="336.97" x2="368.98" y2="336.97" gradientUnits="userSpaceOnUse">
      <stop offset="0" stop-color="#20fd9f"/>
      <stop offset=".22" stop-color="#16f0be"/>
      <stop offset=".49" stop-color="#0be2df"/>
      <stop offset=".72" stop-color="#05daf3"/>
      <stop offset=".88" stop-color="#03d7fb"/>
    </linearGradient>
    <linearGradient id="linear-gradient-5" x1="85.14" y1="535.22" x2="270" y2="535.22" gradientUnits="userSpaceOnUse">
      <stop offset="0" stop-color="#af08f1"/>
      <stop offset=".08" stop-color="#b907e1"/>
      <stop offset=".34" stop-color="#d606b3"/>
      <stop offset=".56" stop-color="#eb0591"/>
      <stop offset=".75" stop-color="#f8057d"/>
      <stop offset=".88" stop-color="#fd0576"/>
    </linearGradient>
    <linearGradient id="linear-gradient-6" x1="24.73" y1="480.41" x2="54.23" y2="480.41" gradientUnits="userSpaceOnUse">
      <stop offset="0" stop-color="#af08f1"/>
      <stop offset=".88" stop-color="#af08f1"/>
    </linearGradient>
    <linearGradient id="linear-gradient-7" x1="177.82" y1="461.55" x2="273.55" y2="461.55" xlink:href="#linear-gradient-5"/>
    <linearGradient id="linear-gradient-8" x1="104.25" y1="240.89" x2="120.18" y2="240.89" gradientUnits="userSpaceOnUse">
      <stop offset="0" stop-color="#20fd9f"/>
      <stop offset=".22" stop-color="#16f0be"/>
      <stop offset=".49" stop-color="#0be2df"/>
      <stop offset=".72" stop-color="#05daf3"/>
      <stop offset=".88" stop-color="#03d7fb"/>
    </linearGradient>
    <linearGradient id="linear-gradient-9" x1="103.5" y1="163.63" x2="121.82" y2="163.63" gradientTransform="translate(42.65 -22.29) rotate(13.91)" xlink:href="#linear-gradient-8"/>
    <linearGradient id="linear-gradient-10" x1="291.86" y1="294.61" x2="316.98" y2="294.61" gradientTransform="translate(297.49 -128.97) rotate(45)" gradientUnits="userSpaceOnUse">
      <stop offset="0" stop-color="#20fd9f"/>
      <stop offset=".18" stop-color="#16f0be"/>
      <stop offset=".42" stop-color="#0be2df"/>
      <stop offset=".61" stop-color="#05daf3"/>
      <stop offset=".74" stop-color="#03d7fb"/>
    </linearGradient>
    <linearGradient id="linear-gradient-11" x1="44.19" y1="365.85" x2="77.2" y2="365.85" gradientUnits="userSpaceOnUse">
      <stop offset="0" stop-color="#073df8"/>
      <stop offset=".19" stop-color="#056bf8"/>
      <stop offset=".41" stop-color="#0499f9"/>
      <stop offset=".61" stop-color="#03bbfa"/>
      <stop offset=".77" stop-color="#03cffa"/>
      <stop offset=".88" stop-color="#03d7fb"/>
    </linearGradient>
    <linearGradient id="linear-gradient-12" x1="209.38" y1="434.83" x2="224.44" y2="434.83" xlink:href="#linear-gradient-11"/>
    <linearGradient id="linear-gradient-13" x1="208.07" y1="529.38" x2="228.09" y2="509.42" gradientUnits="userSpaceOnUse">
      <stop offset=".29" stop-color="#af08f1"/>
      <stop offset=".38" stop-color="#b407e8"/>
      <stop offset=".51" stop-color="#c307d0"/>
      <stop offset=".68" stop-color="#db06aa"/>
      <stop offset=".88" stop-color="#fd0576"/>
    </linearGradient>
    <linearGradient id="linear-gradient-14" x1="348.8" y1="382.16" x2="992.48" y2="382.16" gradientUnits="userSpaceOnUse">
      <stop offset=".19" stop-color="#c80d0d"/>
      <stop offset=".47" stop-color="#a70d0d"/>
      <stop offset=".72" stop-color="#930d0d"/>
      <stop offset=".88" stop-color="#8c0d0d"/>
    </linearGradient>
  </defs>
  <g id="Layer_3" data-name="Layer 3">
    <g>
      <path class="cls-10" d="M330.5,485.09c2.64,1.55,7.62-2.26,10.51-4.51,6.48-5.05,13.48-10.52,16.55-20.73,1.72-5.73,1.35-10.34,.83-17.01-.65-8.43-2.66-14.97-3.96-18.6-4.3-12.03-12.69-25.34-16.19-24.16-2.05,.69-.05,5.56-3.06,14.25-2.52,7.28-6.72,12.15-10.2,15.95-3.18,3.47-5.75,6.27-10.1,8.59-1.97,1.05-2.4,.98-2.94,1.75-2.09,2.96,1.82,7.58,8.2,21.41t4.11,9.15q4.09,9.1,4.09,9.1c1.14,3.23,1.16,4.22,2.17,4.82Z"/>
      <polygon class="cls-1" points="371.25 569.67 305.22 569.43 273.55 498.89 254.13 455.6 190.12 312.97 152.84 395.93 151.71 398.45 117.65 474.25 104.56 503.37 85.14 546.58 74.31 570.69 9.27 570.69 36.04 509.91 54.23 468.66 63.15 448.42 91.84 383.29 93.13 380.38 149.83 251.7 159.63 229.45 189.33 162.06 247.68 292.78 280.39 366.08 313.23 439.64 333.32 484.68 371.25 569.67"/>
      <path class="cls-9" d="M157.32,495.86c2.38,4.89,2.02,6.44,1.63,7.04-.07,.11-.17,.22-.23,.27-2.25,2.08-20.05-12.63-41.05-28.91-.84-.65-1.69-1.3-2.54-1.96-3.72-2.86-8.85-6.78-16.12-10.99-2.89-1.67-8.41-4.71-15.75-7.73-4.57-1.88-6.85-2.82-10.24-3.68-3.75-.95-7.06-1.36-9.85-1.46-5.18-.2-8.61,.61-9.85,.94-1.93,.51-3.58,.94-4.86,1.54-.02,0-.03,0-.04,.02-3.5,1.26-7.25,3.2-10.72,6.19-15.14,12.97-13.07,35.16-12.55,39.3-4.35-6.26-7.34-12.05-8.86-16.95-2.23-7.23-3.06-13.49-3.41-17.67-.53-14.44,3.4-24.69,5.91-29.99,8.79-18.49,24.8-27.66,32.96-32.34,8.46-4.85,18.09-8.51,23.81-10.68,6.62-2.51,12.26-4.3,16.31-5.49,2.98-1.1,6.29-2.15,9.97-2.92,6.29-1.32,15.21-2.35,25.72-1.22,0,0,7.88,2.8,4.03,7.7-.95,.61-2.85,2.02-4.16,4.55-1.79,3.46-1.3,6.74-1.09,7.79,.81,1.48,2.21,3.47,4.55,4.46,3.64,1.56,7.35-.21,11.1-1.75,3.34-1.37,6.64-2.52,9.75-3.47,5.67-1.72,10.77-2.77,14.51-3.19,6.04-.68,10.64-.03,14.44,.53,10.1,1.45,18.02,4.92,23.29,7.79,3.65,1.88,5.8,5.02,5.34,7.7-.3,1.72-1.62,3.03-2.07,3.47-1.08,1.07-2.07,1.45-3.9,2.19-.11,.05-.25,.1-.38,.15-.17,.07-.34,.13-.53,.2-1.6,.63-3.83,1.58-6.32,2.9,0,0-.02,0-.04,.02-4.36,2.17-5.72,3.34-6.37,3.97,0,0,0,0,0,0-8.72,6.38-16.49,16.91-8.58,32.36,14.3,27.92,55.17,39.86,56.44,40.22-20.88-2.69-47.8-8.56-75.53-21.14,0,0-19.7-10.5-4.73,20.22Z"/>
      <path class="cls-11" d="M357.88,454.43c-.38,3.1-1.07,5.35-1.23,5.87-.44,1.41-.92,2.56-1.29,3.4-.38,.87-.81,1.76-1.29,2.67-1.8,3.38-3.89,6.08-5.85,8.19,2.4-2.38,4.88-5.04,7.35-8.01,1.2-1.44,2.32-2.86,3.37-4.26,.92-1.56,1.84-3.26,2.73-5.1,1.49-3.06,2.65-5.98,3.55-8.65,1.08-3.6,2.08-7.77,2.79-12.45,.57-3.76,.86-7.26,.97-10.41,.02-17.39-6.16-30.07-8.68-35.24-22.17-45.48-78.79-77.28-99.66-88.63-6.2-3.37-11.4-6-15.98-8.2-16.54-7.99-24.91-10.53-42.76-23.05-20.45-14.35-35.39-29.23-45.28-40.28-.75-.84-1.47-1.65-2.16-2.44-16.7-20.63-26.53-30.04-29.5-28.23-.45,.28-.74,.82-.88,1.62,.21,5.18,1.02,12.21,3.59,20.13,2.32,7.16,5.36,12.85,7.97,16.98,3.36,4.53,7.07,9.29,11.18,14.18,10.11,12.04,22.56,24.9,37.76,37.43,10.81,8.91,21.39,16.31,31.24,22.44,19.12,14.29,22.2,19.54,21.15,21.6-.91,1.78-4.84,1.12-8.89,4.74-2.39,2.14-3.59,4.65-4.2,6.26-.85,2.38-.78,4.23-.49,5.53,1.43,6.61,10.78,11.64,23.34,12.02,7.91,.29,18.65,1.3,30.66,4.35,13.19,3.36,27.92,9.21,42.18,19.34,6.27,4.45,11.62,9.15,16.18,13.77,.3,.28,.58,.57,.87,.87,.02,.02,.04,.04,.06,.06h0c4.75,4.37,11.23,11.55,15.89,21.95,.64,1.42,4.04,9.19,5.26,19.2,.06,.46,.77,6.56,.07,12.34Z"/>
      <g>
        <g>
          <path class="cls-6" d="M262.86,550.29c-10.2,6.38-19.3,9.15-21.53,9.8-9.15,2.7-16.68,3.8-22.66,4.53-10.52,1.28-23.12,2.77-41.41,2.38-9.07-.19-30.27-.63-52.17-5.78-14.51-3.41-27.89-8.52-39.94-14.65l19.42-43.21c7.88,4.53,17.32,9.19,28.31,13.22,18.99,6.96,36.14,9.67,49.28,10.68,8.92,.3,11.32,1.48,11.54,2.65,.18,1.02-.5,2.6-4.62,5.84-2.46,1.93-3.28,3.53-3.09,4.83,.49,3.23,8.85,4.77,13.86,5.67,5.59,1.01,10.61,1.28,14.79,1.23,17.89,1.28,31.51-.26,40.88-2.01,5.37-1.01,13.82-2.91,14.45-1.25,.5,1.31-4.1,4.19-7.1,6.07Z"/>
          <path class="cls-3" d="M54.23,468.66l-18.18,41.25c-4.27-4.6-7.93-9.16-10.92-13.49v-.02c-.52-4.13-2.58-26.32,12.55-39.3,3.48-2.99,7.22-4.93,10.72-6.19-1.17,.56-2.03,1.27-2.5,2.31-1.79,3.9,3.07,9.8,6.88,13.9,.48,.52,.96,1.02,1.45,1.53Z"/>
        </g>
        <path class="cls-7" d="M273.55,498.89c-6.18,.14-19.1,.05-35.98-2.12,0,0,0,0-.03,0-1.28-.37-42.14-12.31-56.44-40.22-7.91-15.45-.14-25.98,8.58-32.36-.86,.81-1.72,1.61-2.48,2.92-1.11,1.93-2.05,5-2.05,5-.18,.72-.3,1.35-.39,2.06-.09,.72-.16,1.51-.25,2.59-.03,.43-.08,1.02,0,1.77,0,0,.11,.99,.47,1.95,.25,.67,7.65,13.24,41.62,15.9,4.51,.35,14.15,.75,27.5-.76l19.42,43.29Z"/>
      </g>
      <ellipse class="cls-12" cx="112.21" cy="240.89" rx="7.97" ry="7.57"/>
      <ellipse class="cls-8" cx="112.66" cy="163.63" rx="8.52" ry="16.31" transform="translate(-36.04 31.89) rotate(-13.91)"/>
      <ellipse class="cls-5" cx="304.42" cy="294.61" rx="7.89" ry="15.91" transform="translate(-119.16 301.55) rotate(-45)"/>
      <ellipse class="cls-4" cx="60.7" cy="365.85" rx="16.5" ry="14.53"/>
      <circle class="cls-13" cx="216.91" cy="434.83" r="7.53"/>
      <ellipse class="cls-14" cx="217.39" cy="520.09" rx="16.5" ry="9.45"/>
    </g>
  </g>
  <g id="Layer_4" data-name="Layer 4">
    <g>
      <path class="cls-2" d="M422.23,457.63l26.58,109.44h-24.8l-37.61-152.91,19.29,.38c5.83,0,10.86-4.96,15.07-14.87,4.38-9.91,6.48-22.12,6.48-36.23s-2.11-25.55-6.48-35.46c-4.21-9.91-9.24-14.87-15.07-14.87h-43.28l-2.43-5.72-11.18-45.38h56.9c11.83,0,22.04,9.91,30.47,29.74,8.43,20.21,12.64,43.85,12.64,71.69,0,21.35-2.43,40.42-7.62,57.58-5.02,17.16-11.35,29.36-18.96,36.61Z"/>
      <path class="cls-2" d="M536.99,262.01v51.1h-43.12v253.97h-21.72V262.01h64.84Z"/>
      <path class="cls-2" d="M576.37,515.97l-21.56,51.1V262.01l21.56,50.34v203.63Z"/>
      <path class="cls-2" d="M639.59,515.97l-21.56,51.1V262.01l21.56,50.34v203.63Z"/>
      <path class="cls-2" d="M709.94,262.01v51.1h-64.84l-21.56-51.1h86.4Zm-64.84,127.36h64.84v50.72h-86.4v-50.72h21.56Zm0,126.6h64.84v51.1h-86.4v-4.19l21.56-46.9Z"/>
      <path class="cls-2" d="M731.45,534.94l58.65-179.55c5.62-16.38,10.98-30.87,16.87-47.25v-1.26h-70.16v-44.73h98.82l-.27,34.65-57.84,177.03c-5.36,17.01-10.71,32.13-16.6,47.88v1.26h75.79v44.1h-105.24v-32.13Z"/>
    </g>
  </g>
</svg>