<svg xmlns="http://www.w3.org/2000/svg" xmlns:xlink="http://www.w3.org/1999/xlink" version="1.1" preserveAspectRatio="xMidYMid meet" viewBox="0 0 494 527.56" width="494" height="527.56"><defs><path d="M420.81 196.27C418.46 196.27 416.23 197.32 414.71 199.12C411.73 202.66 341.63 286.36 351.12 346.65C353.7 364.36 364.2 379.94 379.65 389C379.72 389.04 380.12 389.27 380.82 389.67C380.82 420.98 380.82 438.36 380.82 441.85C360.4 410.29 324.3 389.9 272.96 381.11C271.35 380.83 269.69 381.07 268.2 381.78C268.2 378.78 268.2 354.85 268.2 351.86C288.61 337.8 300.81 314.6 300.81 289.8C300.81 284.09 300.81 255.53 300.81 204.1C301.44 204.1 301.79 204.1 301.86 204.1C329.13 204.16 352.49 184.63 357.27 157.78C363.06 126.2 342.81 95.7 311.45 88.8C301.06 86.5 217.89 68.11 207.5 65.81C209.93 50.98 220.48 16.2 266.6 16.2C271.02 16.2 274.59 12.61 274.59 8.21C274.59 3.79 271.02 0.22 266.6 0.22C209.93 0.22 195.6 42.92 192 62.39C184.52 60.75 124.78 47.57 117.31 45.93C86.5 39.13 56.02 58.6 49.22 89.41C48.33 93.44 47.88 97.57 47.88 101.71C47.88 102.46 47.88 108.53 47.88 109.29C47.87 119.21 49.75 129.04 53.42 138.25C54.79 141.73 65.84 169.61 67.22 173.09C72.36 186.15 83.32 196.04 96.82 199.81C96.82 208.82 96.82 280.81 96.82 289.8C96.83 314.99 109.41 338.51 130.36 352.5C130.36 355.84 130.36 382.56 130.36 385.91C128.77 385.07 126.94 384.81 125.18 385.17C26.43 404.67 6.61 460.61 0.28 500.99C-0.76 507.65 1.17 514.44 5.55 519.56C10.01 524.78 16.53 527.78 23.4 527.77C58.75 527.77 341.6 527.77 376.96 527.77C379.53 527.78 382.07 527.35 384.5 526.52C385.78 527.34 387.27 527.78 388.79 527.77C395.14 527.77 446.01 527.77 452.37 527.77C456.78 527.77 460.36 524.2 460.36 519.78C460.36 506.97 460.36 404.47 460.36 391.66C477.2 381.92 489.01 365.38 492.74 346.3C499.71 309.14 477.69 259.63 426.92 199.15C425.41 197.34 423.17 196.28 420.81 196.27C420.81 196.27 420.81 196.27 420.81 196.27ZM63.84 109.29C63.84 108.53 63.84 102.46 63.84 101.71C63.82 79 82.21 60.58 104.91 60.54C107.92 60.55 110.93 60.88 113.86 61.52C133.28 65.81 288.56 100.11 307.97 104.39C331 109.41 345.9 131.79 341.63 154.97C338.21 174.23 321.42 188.24 301.86 188.15C301.82 188.15 301.63 188.15 301.29 188.15C266.4 187.64 247.02 187.35 243.14 187.29C247.2 184.66 250.89 181.49 254.1 177.89C268.81 161.39 268.91 140.83 267.66 129.94C267.36 127.29 264.97 125.39 262.32 125.69C259.68 125.99 257.77 128.38 258.07 131.02C258.07 131.02 258.07 131.02 258.07 131.02C259.13 140.24 259.09 157.69 246.88 171.4C239.5 179.23 229.91 184.61 219.39 186.84C214.67 186.78 176.95 186.27 172.24 186.2C165.84 183.93 160.07 180.21 155.35 175.33C138.89 158.14 139.85 130.96 139.89 130.58C140.01 127.93 137.96 125.68 135.31 125.56C132.67 125.43 130.42 127.48 130.3 130.13C130.3 131.4 129.08 161.58 148.36 181.79C149.71 183.21 151.14 184.55 152.64 185.82C148.23 185.76 112.97 185.27 108.56 185.21C96.89 185.14 86.42 178.03 82.06 167.21C82.06 167.21 69.63 135.82 68.24 132.33C65.32 125 63.84 117.18 63.84 109.29ZM284.79 203.88C284.79 255.42 284.79 284.05 284.79 289.77C284.76 322.58 258.17 349.16 225.36 349.2C220.06 349.2 177.55 349.2 172.24 349.2C139.44 349.16 112.86 322.6 112.81 289.8C112.81 289.8 112.81 260.39 112.81 201.57C147.2 202.03 267.59 203.65 284.79 203.88ZM258.55 357.46C258.55 359.49 258.55 369.69 258.55 388.04C254.59 394.03 234.82 423.95 199.22 477.81C163.64 424.56 143.87 394.98 139.92 389.06C139.92 370.4 139.92 360.03 139.92 357.96C150.02 362.76 161.06 365.24 172.24 365.22C172.24 365.22 220.03 365.19 225.33 365.19C236.85 365.2 248.22 362.55 258.55 357.46ZM17.7 509.14C16.35 507.57 15.75 505.5 16.07 503.45C22.12 464.8 40.34 418.19 128.28 400.83C130.56 400.38 132.52 398.95 133.65 396.94C139.82 406.16 189.12 479.93 195.28 489.16C196.17 490.5 197.67 491.3 199.28 491.3C199.28 491.3 199.28 491.3 199.28 491.3C200.89 491.3 202.39 490.5 203.27 489.16C209.54 479.7 259.61 404.03 265.87 394.57C267.05 395.81 268.59 396.64 270.28 396.94C332.36 407.54 369.58 436.22 380.82 482.13C380.82 485.01 380.82 508.02 380.82 510.9C379.69 511.6 378.37 511.97 377.02 511.95C306.3 511.91 94.11 511.8 23.4 511.76C21.21 511.76 19.13 510.8 17.7 509.14ZM396.75 397.26C405.43 400.39 414.59 402.03 423.82 402.08C430.77 402.09 437.7 401.07 444.34 399.04C444.34 406.56 444.34 444.13 444.34 511.76C441.17 511.76 425.3 511.76 396.75 511.76C396.75 440.51 396.75 402.34 396.75 397.26ZM388.02 375.42C376.55 368.81 368.75 357.3 366.89 344.19C360.5 304.42 397.03 249.05 415.99 223.44C415.99 230.75 415.99 289.21 415.99 296.52C415.99 299.16 418.14 301.31 420.78 301.31C423.43 301.31 425.58 299.16 425.58 296.52C425.58 289.16 425.58 230.34 425.58 222.99C464.71 272.74 482.51 314.17 477.02 343.35C474.04 358.98 464.45 371.32 448.5 380.08C431.14 389.67 407.97 387.82 388.02 375.42Z" id="a2vx2yELw"/><path d="M420.81 196.27C418.46 196.27 416.23 197.32 414.71 199.12C411.73 202.66 341.63 286.36 351.12 346.65C353.7 364.36 364.2 379.94 379.65 389C379.72 389.04 380.12 389.27 380.82 389.67C380.82 420.98 380.82 438.36 380.82 441.85C360.4 410.29 324.3 389.9 272.96 381.11C271.35 380.83 269.69 381.07 268.2 381.78C268.2 378.78 268.2 354.85 268.2 351.86C288.61 337.8 300.81 314.6 300.81 289.8C300.81 284.09 300.81 255.53 300.81 204.1C301.44 204.1 301.79 204.1 301.86 204.1C329.13 204.16 352.49 184.63 357.27 157.78C363.06 126.2 342.81 95.7 311.45 88.8C301.06 86.5 217.89 68.11 207.5 65.81C209.93 50.98 220.48 16.2 266.6 16.2C271.02 16.2 274.59 12.61 274.59 8.21C274.59 3.79 271.02 0.22 266.6 0.22C209.93 0.22 195.6 42.92 192 62.39C184.52 60.75 124.78 47.57 117.31 45.93C86.5 39.13 56.02 58.6 49.22 89.41C48.33 93.44 47.88 97.57 47.88 101.71C47.88 102.46 47.88 108.53 47.88 109.29C47.87 119.21 49.75 129.04 53.42 138.25C54.79 141.73 65.84 169.61 67.22 173.09C72.36 186.15 83.32 196.04 96.82 199.81C96.82 208.82 96.82 280.81 96.82 289.8C96.83 314.99 109.41 338.51 130.36 352.5C130.36 355.84 130.36 382.56 130.36 385.91C128.77 385.07 126.94 384.81 125.18 385.17C26.43 404.67 6.61 460.61 0.28 500.99C-0.76 507.65 1.17 514.44 5.55 519.56C10.01 524.78 16.53 527.78 23.4 527.77C58.75 527.77 341.6 527.77 376.96 527.77C379.53 527.78 382.07 527.35 384.5 526.52C385.78 527.34 387.27 527.78 388.79 527.77C395.14 527.77 446.01 527.77 452.37 527.77C456.78 527.77 460.36 524.2 460.36 519.78C460.36 506.97 460.36 404.47 460.36 391.66C477.2 381.92 489.01 365.38 492.74 346.3C499.71 309.14 477.69 259.63 426.92 199.15C425.41 197.34 423.17 196.28 420.81 196.27C420.81 196.27 420.81 196.27 420.81 196.27ZM63.84 109.29C63.84 108.53 63.84 102.46 63.84 101.71C63.82 79 82.21 60.58 104.91 60.54C107.92 60.55 110.93 60.88 113.86 61.52C133.28 65.81 288.56 100.11 307.97 104.39C331 109.41 345.9 131.79 341.63 154.97C338.21 174.23 321.42 188.24 301.86 188.15C301.82 188.15 301.63 188.15 301.29 188.15C266.4 187.64 247.02 187.35 243.14 187.29C247.2 184.66 250.89 181.49 254.1 177.89C268.81 161.39 268.91 140.83 267.66 129.94C267.36 127.29 264.97 125.39 262.32 125.69C259.68 125.99 257.77 128.38 258.07 131.02C258.07 131.02 258.07 131.02 258.07 131.02C259.13 140.24 259.09 157.69 246.88 171.4C239.5 179.23 229.91 184.61 219.39 186.84C214.67 186.78 176.95 186.27 172.24 186.2C165.84 183.93 160.07 180.21 155.35 175.33C138.89 158.14 139.85 130.96 139.89 130.58C140.01 127.93 137.96 125.68 135.31 125.56C132.67 125.43 130.42 127.48 130.3 130.13C130.3 131.4 129.08 161.58 148.36 181.79C149.71 183.21 151.14 184.55 152.64 185.82C148.23 185.76 112.97 185.27 108.56 185.21C96.89 185.14 86.42 178.03 82.06 167.21C82.06 167.21 69.63 135.82 68.24 132.33C65.32 125 63.84 117.18 63.84 109.29ZM284.79 203.88C284.79 255.42 284.79 284.05 284.79 289.77C284.76 322.58 258.17 349.16 225.36 349.2C220.06 349.2 177.55 349.2 172.24 349.2C139.44 349.16 112.86 322.6 112.81 289.8C112.81 289.8 112.81 260.39 112.81 201.57C147.2 202.03 267.59 203.65 284.79 203.88ZM258.55 357.46C258.55 359.49 258.55 369.69 258.55 388.04C254.59 394.03 234.82 423.95 199.22 477.81C163.64 424.56 143.87 394.98 139.92 389.06C139.92 370.4 139.92 360.03 139.92 357.96C150.02 362.76 161.06 365.24 172.24 365.22C172.24 365.22 220.03 365.19 225.33 365.19C236.85 365.2 248.22 362.55 258.55 357.46ZM17.7 509.14C16.35 507.57 15.75 505.5 16.07 503.45C22.12 464.8 40.34 418.19 128.28 400.83C130.56 400.38 132.52 398.95 133.65 396.94C139.82 406.16 189.12 479.93 195.28 489.16C196.17 490.5 197.67 491.3 199.28 491.3C199.28 491.3 199.28 491.3 199.28 491.3C200.89 491.3 202.39 490.5 203.27 489.16C209.54 479.7 259.61 404.03 265.87 394.57C267.05 395.81 268.59 396.64 270.28 396.94C332.36 407.54 369.58 436.22 380.82 482.13C380.82 485.01 380.82 508.02 380.82 510.9C379.69 511.6 378.37 511.97 377.02 511.95C306.3 511.91 94.11 511.8 23.4 511.76C21.21 511.76 19.13 510.8 17.7 509.14ZM396.75 397.26C405.43 400.39 414.59 402.03 423.82 402.08C430.77 402.09 437.7 401.07 444.34 399.04C444.34 406.56 444.34 444.13 444.34 511.76C441.17 511.76 425.3 511.76 396.75 511.76C396.75 440.51 396.75 402.34 396.75 397.26ZM388.02 375.42C376.55 368.81 368.75 357.3 366.89 344.19C360.5 304.42 397.03 249.05 415.99 223.44C415.99 230.75 415.99 289.21 415.99 296.52C415.99 299.16 418.14 301.31 420.78 301.31C423.43 301.31 425.58 299.16 425.58 296.52C425.58 289.16 425.58 230.34 425.58 222.99C464.71 272.74 482.51 314.17 477.02 343.35C474.04 358.98 464.45 371.32 448.5 380.08C431.14 389.67 407.97 387.82 388.02 375.42Z" id="fGVylgtLs"/></defs><g><g><g><use xlink:href="#a2vx2yELw" opacity="1" fill="#333333" fill-opacity="1"/><g><use xlink:href="#a2vx2yELw" opacity="1" fill-opacity="0" stroke="#000000" stroke-width="1" stroke-opacity="0"/></g></g><g><use xlink:href="#fGVylgtLs" opacity="1" fill="#333333" fill-opacity="1"/><g><use xlink:href="#fGVylgtLs" opacity="1" fill-opacity="0" stroke="#000000" stroke-width="1" stroke-opacity="0"/></g></g></g></g></svg>