<svg xmlns="http://www.w3.org/2000/svg" xmlns:xlink="http://www.w3.org/1999/xlink" version="1.1" preserveAspectRatio="xMidYMid meet" viewBox="0 0 514.41 415" width="514.41" height="415"><defs><path d="M360.2 185.59C349.85 174.7 327.95 155.13 300.3 150.3C300.3 141.18 300.3 68.2 300.3 59.08C300.32 58.76 300.32 58.44 300.3 58.12C296.31 24.95 268.17 -0.01 234.77 0C227.59 0 170.13 0 162.95 0C126.54 0.04 97.03 29.53 96.98 65.94C96.98 78.03 96.98 174.72 96.98 186.81C97.01 212.16 111.57 235.25 134.43 246.2C134.43 247.69 134.43 255.15 134.43 268.56C129.64 268.56 126.99 268.56 126.45 268.56C125.94 268.51 125.43 268.51 124.92 268.56C27.24 287.72 7.15 346.12 0.57 388.25C-0.47 394.9 1.45 401.68 5.84 406.8C10.29 412.01 16.8 415.01 23.66 415C57.03 415 323.94 415 357.3 415C358.28 414.75 359.31 414.75 360.3 415C361.83 415 363.32 414.56 364.61 413.72C397.66 392.43 506.07 316.94 514.22 240.65C516.86 216.22 508.72 194.28 490.01 175.6C470.53 156.12 449.32 147.08 426.94 148.71C395.78 150.98 371.22 173.56 360.2 185.59ZM162.95 15.97C170.13 15.97 227.59 15.97 234.77 15.97C259.88 16 281.08 34.65 284.3 59.56C284.3 68.53 284.3 140.29 284.3 149.26C265.14 150.22 247.16 159.03 230.58 175.6C212.9 193.29 204.66 213.92 206.03 236.81C201.72 236.81 167.25 236.81 162.95 236.81C135.34 236.79 112.96 214.42 112.95 186.81C112.95 162.64 112.95 78.03 112.95 65.94C112.98 38.34 135.35 15.99 162.95 15.97ZM162.95 252.78C167.5 252.78 203.97 252.78 208.52 252.78C209.81 258.14 211.48 263.41 213.54 268.53C208.9 268.53 185.73 268.53 144.01 268.53C144.01 258.63 144.01 252.44 144.01 249.98C150.16 251.83 156.54 252.78 162.95 252.78ZM127.25 284.52C136.62 284.52 211.57 284.52 220.94 284.52C246.84 332.07 300.11 374.99 334.17 399.19C303.13 399.19 54.71 399.19 23.66 399.19C21.47 399.18 19.39 398.22 17.98 396.55C16.62 394.98 16.03 392.91 16.35 390.86C22.74 350.41 41.03 301.83 127.25 284.52ZM321.18 269.54C353.17 301.55 370.96 319.32 374.51 322.87C376.41 324.68 379.38 324.68 381.28 322.87C383.43 320.72 394.22 309.94 413.63 290.53C434.58 311.49 446.23 323.13 448.56 325.46C421.88 352.66 392.28 376.85 360.3 397.57C328.08 376.46 294.68 349.96 268.74 321.98C272.24 318.48 289.72 301.01 321.18 269.54ZM417.01 280.37C415.11 278.58 412.14 278.58 410.24 280.37C408.08 282.53 397.3 293.32 377.89 312.72C345.9 280.72 328.12 262.95 324.56 259.4C322.7 257.52 319.66 257.52 317.8 259.4C312.26 264.93 267.99 309.28 262.45 314.83C240.42 289.57 224.96 263.42 222.38 239.08C220.27 219.28 226.69 202.24 242.02 186.91C256.45 172.47 271.9 165.15 288 165.15C289.09 165.15 290.21 165.15 291.19 165.15C326.1 167.3 353.78 202.33 354.04 202.65C355.53 204.68 357.9 205.87 360.43 205.84C362.93 205.84 365.3 204.65 366.82 202.65C367.07 202.3 393.73 167.14 428.29 164.67C445.78 163.4 462.8 171.06 478.83 187.03C494.07 202.24 500.49 219.28 498.38 239.08C495.63 264.63 478.8 292.09 455.07 318.47C451.27 314.66 420.81 284.18 417.01 280.37Z" id="cbnNFWpRK"/><path d="M360.2 185.59C349.85 174.7 327.95 155.13 300.3 150.3C300.3 141.18 300.3 68.2 300.3 59.08C300.32 58.76 300.32 58.44 300.3 58.12C296.31 24.95 268.17 -0.01 234.77 0C227.59 0 170.13 0 162.95 0C126.54 0.04 97.03 29.53 96.98 65.94C96.98 78.03 96.98 174.72 96.98 186.81C97.01 212.16 111.57 235.25 134.43 246.2C134.43 247.69 134.43 255.15 134.43 268.56C129.64 268.56 126.99 268.56 126.45 268.56C125.94 268.51 125.43 268.51 124.92 268.56C27.24 287.72 7.15 346.12 0.57 388.25C-0.47 394.9 1.45 401.68 5.84 406.8C10.29 412.01 16.8 415.01 23.66 415C57.03 415 323.94 415 357.3 415C358.28 414.75 359.31 414.75 360.3 415C361.83 415 363.32 414.56 364.61 413.72C397.66 392.43 506.07 316.94 514.22 240.65C516.86 216.22 508.72 194.28 490.01 175.6C470.53 156.12 449.32 147.08 426.94 148.71C395.78 150.98 371.22 173.56 360.2 185.59ZM162.95 15.97C170.13 15.97 227.59 15.97 234.77 15.97C259.88 16 281.08 34.65 284.3 59.56C284.3 68.53 284.3 140.29 284.3 149.26C265.14 150.22 247.16 159.03 230.58 175.6C212.9 193.29 204.66 213.92 206.03 236.81C201.72 236.81 167.25 236.81 162.95 236.81C135.34 236.79 112.96 214.42 112.95 186.81C112.95 162.64 112.95 78.03 112.95 65.94C112.98 38.34 135.35 15.99 162.95 15.97ZM162.95 252.78C167.5 252.78 203.97 252.78 208.52 252.78C209.81 258.14 211.48 263.41 213.54 268.53C208.9 268.53 185.73 268.53 144.01 268.53C144.01 258.63 144.01 252.44 144.01 249.98C150.16 251.83 156.54 252.78 162.95 252.78ZM127.25 284.52C136.62 284.52 211.57 284.52 220.94 284.52C246.84 332.07 300.11 374.99 334.17 399.19C303.13 399.19 54.71 399.19 23.66 399.19C21.47 399.18 19.39 398.22 17.98 396.55C16.62 394.98 16.03 392.91 16.35 390.86C22.74 350.41 41.03 301.83 127.25 284.52ZM321.18 269.54C353.17 301.55 370.96 319.32 374.51 322.87C376.41 324.68 379.38 324.68 381.28 322.87C383.43 320.72 394.22 309.94 413.63 290.53C434.58 311.49 446.23 323.13 448.56 325.46C421.88 352.66 392.28 376.85 360.3 397.57C328.08 376.46 294.68 349.96 268.74 321.98C272.24 318.48 289.72 301.01 321.18 269.54ZM417.01 280.37C415.11 278.58 412.14 278.58 410.24 280.37C408.08 282.53 397.3 293.32 377.89 312.72C345.9 280.72 328.12 262.95 324.56 259.4C322.7 257.52 319.66 257.52 317.8 259.4C312.26 264.93 267.99 309.28 262.45 314.83C240.42 289.57 224.96 263.42 222.38 239.08C220.27 219.28 226.69 202.24 242.02 186.91C256.45 172.47 271.9 165.15 288 165.15C289.09 165.15 290.21 165.15 291.19 165.15C326.1 167.3 353.78 202.33 354.04 202.65C355.53 204.68 357.9 205.87 360.43 205.84C362.93 205.84 365.3 204.65 366.82 202.65C367.07 202.3 393.73 167.14 428.29 164.67C445.78 163.4 462.8 171.06 478.83 187.03C494.07 202.24 500.49 219.28 498.38 239.08C495.63 264.63 478.8 292.09 455.07 318.47C451.27 314.66 420.81 284.18 417.01 280.37Z" id="b35p6Cln3s"/><path d="M398.49 254.16C411.13 254.16 421.38 243.91 421.38 231.26C421.38 231.26 421.38 231.26 421.38 231.26C421.38 218.61 411.13 208.36 398.49 208.36C385.85 208.36 375.6 218.61 375.6 231.26C375.6 243.91 385.85 254.16 398.49 254.16ZM398.49 217.91C405.84 217.91 411.8 223.87 411.8 231.23C411.8 231.23 411.8 231.23 411.8 231.23C411.8 238.58 405.84 244.55 398.49 244.55C391.13 244.55 385.18 238.58 385.18 231.23C385.18 223.87 391.13 217.91 398.49 217.91Z" id="afc3OhMJD"/><path d="M398.49 254.16C411.13 254.16 421.38 243.91 421.38 231.26C421.38 231.26 421.38 231.26 421.38 231.26C421.38 218.61 411.13 208.36 398.49 208.36C385.85 208.36 375.6 218.61 375.6 231.26C375.6 243.91 385.85 254.16 398.49 254.16ZM398.49 217.91C405.84 217.91 411.8 223.87 411.8 231.23C411.8 231.23 411.8 231.23 411.8 231.23C411.8 238.58 405.84 244.55 398.49 244.55C391.13 244.55 385.18 238.58 385.18 231.23C385.18 223.87 391.13 217.91 398.49 217.91Z" id="dY8wUbup2"/></defs><g><g><g><use xlink:href="#cbnNFWpRK" opacity="1" fill="#333333" fill-opacity="1"/><g><use xlink:href="#cbnNFWpRK" opacity="1" fill-opacity="0" stroke="#000000" stroke-width="1" stroke-opacity="0"/></g></g><g><use xlink:href="#b35p6Cln3s" opacity="1" fill="#333333" fill-opacity="1"/><g><use xlink:href="#b35p6Cln3s" opacity="1" fill-opacity="0" stroke="#000000" stroke-width="1" stroke-opacity="0"/></g></g><g><use xlink:href="#afc3OhMJD" opacity="1" fill="#333333" fill-opacity="1"/><g><use xlink:href="#afc3OhMJD" opacity="1" fill-opacity="0" stroke="#000000" stroke-width="1" stroke-opacity="0"/></g></g><g><use xlink:href="#dY8wUbup2" opacity="1" fill="#333333" fill-opacity="1"/><g><use xlink:href="#dY8wUbup2" opacity="1" fill-opacity="0" stroke="#000000" stroke-width="1" stroke-opacity="0"/></g></g></g></g></svg>