<?xml version="1.0" encoding="UTF-8"?>
<svg id="Layer_3" data-name="Layer 3" xmlns="http://www.w3.org/2000/svg" xmlns:xlink="http://www.w3.org/1999/xlink" viewBox="0 0 836.7 896.96">
  <defs>
    <style>
      .cls-1 {
        fill: url(#linear-gradient-2);
      }

      .cls-2 {
        fill: url(#linear-gradient-6);
      }

      .cls-3 {
        fill: url(#linear-gradient-11);
      }

      .cls-4 {
        fill: url(#linear-gradient-10);
      }

      .cls-5 {
        fill: url(#linear-gradient-5);
      }

      .cls-6 {
        fill: url(#linear-gradient-7);
      }

      .cls-7 {
        fill: url(#linear-gradient-9);
      }

      .cls-8 {
        fill: url(#linear-gradient-3);
      }

      .cls-9 {
        fill: url(#linear-gradient);
      }

      .cls-10 {
        fill: url(#linear-gradient-4);
      }

      .cls-11 {
        fill: url(#linear-gradient-8);
      }

      .cls-12 {
        fill: url(#linear-gradient-12);
      }

      .cls-13 {
        fill: url(#linear-gradient-13);
      }
    </style>
    <linearGradient id="linear-gradient" x1="701.84" y1="625.64" x2="803.51" y2="625.64" gradientUnits="userSpaceOnUse">
      <stop offset="0" stop-color="#fd0576"/>
      <stop offset=".08" stop-color="#f20585"/>
      <stop offset=".34" stop-color="#d506b3"/>
      <stop offset=".56" stop-color="#c007d5"/>
      <stop offset=".75" stop-color="#b307e9"/>
      <stop offset=".88" stop-color="#af08f1"/>
    </linearGradient>
    <linearGradient id="linear-gradient-2" x1="453.52" y1="53.07" x2="443.39" y2="820.6" gradientUnits="userSpaceOnUse">
      <stop offset="0" stop-color="#ff7b00"/>
      <stop offset=".86" stop-color="#f71410"/>
    </linearGradient>
    <linearGradient id="linear-gradient-3" x1="62.3" y1="622.04" x2="543.76" y2="622.04" gradientUnits="userSpaceOnUse">
      <stop offset="0" stop-color="#073df8"/>
      <stop offset=".19" stop-color="#056bf8"/>
      <stop offset=".41" stop-color="#0499f9"/>
      <stop offset=".61" stop-color="#03bbfa"/>
      <stop offset=".77" stop-color="#03cffa"/>
      <stop offset=".88" stop-color="#03d7fb"/>
    </linearGradient>
    <linearGradient id="linear-gradient-4" x1="300.62" y1="401.38" x2="825.28" y2="401.38" gradientUnits="userSpaceOnUse">
      <stop offset="0" stop-color="#20fd9f"/>
      <stop offset=".22" stop-color="#16f0be"/>
      <stop offset=".49" stop-color="#0be2df"/>
      <stop offset=".72" stop-color="#05daf3"/>
      <stop offset=".88" stop-color="#03d7fb"/>
    </linearGradient>
    <linearGradient id="linear-gradient-5" x1="217.19" y1="821.76" x2="613.23" y2="821.76" gradientUnits="userSpaceOnUse">
      <stop offset="0" stop-color="#af08f1"/>
      <stop offset=".08" stop-color="#b907e1"/>
      <stop offset=".34" stop-color="#d606b3"/>
      <stop offset=".56" stop-color="#eb0591"/>
      <stop offset=".75" stop-color="#f8057d"/>
      <stop offset=".88" stop-color="#fd0576"/>
    </linearGradient>
    <linearGradient id="linear-gradient-6" x1="87.79" y1="705.55" x2="150.97" y2="705.55" gradientUnits="userSpaceOnUse">
      <stop offset="0" stop-color="#af08f1"/>
      <stop offset=".88" stop-color="#af08f1"/>
    </linearGradient>
    <linearGradient id="linear-gradient-7" x1="415.74" y1="665.56" x2="620.84" y2="665.56" xlink:href="#linear-gradient-5"/>
    <linearGradient id="linear-gradient-8" x1="258.13" y1="197.66" x2="292.26" y2="197.66" gradientUnits="userSpaceOnUse">
      <stop offset="0" stop-color="#20fd9f"/>
      <stop offset=".22" stop-color="#16f0be"/>
      <stop offset=".49" stop-color="#0be2df"/>
      <stop offset=".72" stop-color="#05daf3"/>
      <stop offset=".88" stop-color="#03d7fb"/>
    </linearGradient>
    <linearGradient id="linear-gradient-9" x1="256.53" y1="33.84" x2="295.77" y2="33.84" gradientTransform="translate(16.67 -66.52) rotate(14.16)" xlink:href="#linear-gradient-8"/>
    <linearGradient id="linear-gradient-10" x1="660.07" y1="311.58" x2="713.88" y2="311.58" gradientTransform="translate(427.55 -396.73) rotate(45.49)" gradientUnits="userSpaceOnUse">
      <stop offset="0" stop-color="#20fd9f"/>
      <stop offset=".18" stop-color="#16f0be"/>
      <stop offset=".42" stop-color="#0be2df"/>
      <stop offset=".61" stop-color="#05daf3"/>
      <stop offset=".74" stop-color="#03d7fb"/>
    </linearGradient>
    <linearGradient id="linear-gradient-11" x1="129.48" y1="462.63" x2="200.18" y2="462.63" gradientUnits="userSpaceOnUse">
      <stop offset="0" stop-color="#073df8"/>
      <stop offset=".19" stop-color="#056bf8"/>
      <stop offset=".41" stop-color="#0499f9"/>
      <stop offset=".61" stop-color="#03bbfa"/>
      <stop offset=".77" stop-color="#03cffa"/>
      <stop offset=".88" stop-color="#03d7fb"/>
    </linearGradient>
    <linearGradient id="linear-gradient-12" x1="483.36" y1="608.89" x2="515.61" y2="608.89" xlink:href="#linear-gradient-11"/>
    <linearGradient id="linear-gradient-13" x1="480.6" y1="809.54" x2="523.39" y2="766.87" gradientUnits="userSpaceOnUse">
      <stop offset=".29" stop-color="#af08f1"/>
      <stop offset=".38" stop-color="#b407e8"/>
      <stop offset=".51" stop-color="#c307d0"/>
      <stop offset=".68" stop-color="#db06aa"/>
      <stop offset=".88" stop-color="#fd0576"/>
    </linearGradient>
  </defs>
  <path class="cls-9" d="M742.85,715.47c5.65,3.29,16.33-4.8,22.51-9.57,13.88-10.72,28.89-22.31,35.45-43.96,3.69-12.16,2.89-21.93,1.79-36.07-1.39-17.87-5.7-31.74-8.48-39.45-9.22-25.5-27.18-53.73-34.69-51.23-4.4,1.47-.11,11.79-6.56,30.21-5.41,15.43-14.39,25.77-21.85,33.82-6.81,7.35-12.31,13.29-21.64,18.21-4.22,2.22-5.15,2.09-6.3,3.71-4.48,6.28,3.9,16.08,17.57,45.39t8.82,19.41q8.77,19.31,8.77,19.31c2.44,6.84,2.48,8.96,4.64,10.22Z"/>
  <polygon class="cls-1" points="830.15 894.81 688.67 894.31 620.84 744.72 579.22 652.94 442.1 350.51 362.23 526.42 359.81 531.75 286.84 692.47 258.8 754.22 217.19 845.84 193.99 896.96 54.65 896.96 112.02 768.09 150.97 680.63 170.08 637.71 231.56 499.62 234.31 493.44 355.78 220.58 376.78 173.42 440.41 30.52 565.4 307.69 635.49 463.13 705.83 619.1 748.89 714.6 830.15 894.81"/>
  <path class="cls-8" d="M371.83,738.31c5.1,10.38,4.33,13.66,3.49,14.92-.15,.22-.36,.46-.49,.58-4.82,4.42-42.96-26.78-87.93-61.29-1.8-1.37-3.62-2.77-5.44-4.16-7.97-6.07-18.96-14.39-34.54-23.31-6.19-3.55-18.02-9.99-33.74-16.39-9.79-3.99-14.68-5.98-21.94-7.8-8.03-2-15.12-2.88-21.1-3.1-11.1-.43-18.43,1.3-21.1,1.99-4.13,1.08-7.67,1.99-10.41,3.27-.04,.02-.06,.02-.09,.04-7.5,2.67-15.53,6.79-22.97,13.12-32.42,27.51-28,74.56-26.89,83.32-9.32-13.27-15.73-25.54-18.98-35.93-4.78-15.33-6.54-28.6-7.3-37.46-1.13-30.61,7.28-52.36,12.66-63.59,18.83-39.2,53.13-58.65,70.61-68.57,18.12-10.28,38.74-18.04,51.01-22.64,14.18-5.33,26.27-9.11,34.94-11.64,6.38-2.34,13.48-4.57,21.36-6.2,13.48-2.8,32.59-4.99,55.1-2.58,0,0,16.88,5.94,8.63,16.33-2.04,1.3-6.11,4.29-8.91,9.65-3.83,7.33-2.78,14.29-2.34,16.52,1.73,3.14,4.74,7.35,9.75,9.47,7.8,3.3,15.75-.45,23.78-3.71,7.16-2.91,14.22-5.35,20.89-7.35,12.15-3.66,23.07-5.87,31.09-6.76,12.94-1.45,22.79-.06,30.94,1.11,21.64,3.08,38.61,10.43,49.88,16.52,7.82,3.99,12.41,10.64,11.44,16.33-.64,3.64-3.47,6.42-4.43,7.35-2.31,2.26-4.44,3.08-8.36,4.64-.24,.11-.53,.2-.81,.32-.36,.15-.73,.28-1.13,.43-3.43,1.34-8.21,3.36-13.54,6.14-.02,.02-.04,.02-.08,.04-9.34,4.6-12.25,7.09-13.65,8.41,0,0-.02,0-.02,.02-18.68,13.53-35.33,35.86-18.38,68.62,30.64,59.19,118.18,84.51,120.92,85.29-44.73-5.7-102.41-18.15-161.8-44.83,0,0-42.2-22.27-10.13,42.88Z"/>
  <path class="cls-10" d="M801.5,650.44c-.81,6.57-2.29,11.35-2.63,12.44-.95,2.98-1.96,5.43-2.77,7.21-.81,1.84-1.73,3.73-2.77,5.66-3.85,7.16-8.33,12.89-12.54,17.37,5.15-5.04,10.46-10.69,15.75-16.99,2.56-3.05,4.96-6.06,7.21-9.02,1.97-3.32,3.94-6.92,5.85-10.81,3.19-6.5,5.67-12.68,7.6-18.35,2.31-7.64,4.47-16.48,5.99-26.41,1.22-7.98,1.84-15.39,2.08-22.07,.04-36.88-13.2-63.76-18.6-74.73-47.5-96.43-168.8-163.86-213.51-187.93-13.28-7.15-24.42-12.71-34.22-17.39-35.43-16.95-53.37-22.33-91.61-48.87-43.81-30.42-75.82-61.98-97.01-85.4-1.61-1.78-3.15-3.51-4.63-5.18-35.78-43.75-56.84-63.7-63.2-59.86-.96,.59-1.59,1.74-1.88,3.43,.45,10.99,2.19,25.89,7.69,42.69,4.97,15.18,11.48,27.25,17.07,36.01,7.2,9.61,15.15,19.69,23.95,30.07,21.66,25.52,48.33,52.81,80.9,79.37,23.16,18.9,45.81,34.58,66.93,47.59,40.96,30.29,47.56,41.43,45.31,45.81-1.95,3.77-10.37,2.38-19.05,10.06-5.12,4.53-7.69,9.86-9,13.27-1.82,5.05-1.67,8.97-1.05,11.73,3.06,14.01,23.1,24.69,50,25.48,16.95,.61,39.94,2.75,65.67,9.22,28.26,7.13,59.82,19.53,90.37,41,13.42,9.43,24.88,19.4,34.67,29.19,.63,.59,1.25,1.21,1.85,1.85,.04,.04,.08,.08,.12,.12h0c10.17,9.27,24.06,24.48,34.04,46.53,1.36,3.01,8.66,19.49,11.27,40.71,.12,.97,1.65,13.91,.15,26.17Z"/>
  <g>
    <g>
      <path class="cls-5" d="M597.94,853.71c-21.85,13.53-41.35,19.4-46.13,20.79-19.6,5.74-35.74,8.06-48.55,9.61-22.54,2.71-49.53,5.87-88.72,5.05-19.43-.41-64.85-1.34-111.77-12.25-31.07-7.22-59.75-18.06-85.57-31.07l41.61-91.62c16.88,9.61,37.11,19.49,60.65,28.03,40.68,14.76,77.43,20.51,105.58,22.64,19.11,.63,24.25,3.14,24.72,5.62,.39,2.15-1.07,5.51-9.9,12.38-5.27,4.1-7.03,7.48-6.62,10.25,1.05,6.85,18.96,10.12,29.69,12.03,11.98,2.13,22.73,2.71,31.69,2.6,38.33,2.71,67.51-.56,87.58-4.27,11.5-2.13,29.61-6.16,30.96-2.65,1.07,2.78-8.78,8.89-15.21,12.86Z"/>
      <path class="cls-2" d="M150.97,680.63l-38.95,87.46c-9.15-9.76-16.99-19.42-23.4-28.6v-.04c-1.11-8.76-5.53-55.81,26.89-83.32,7.45-6.33,15.47-10.45,22.97-13.12-2.51,1.19-4.35,2.69-5.36,4.9-3.83,8.28,6.58,20.77,14.74,29.48,1.03,1.1,2.06,2.17,3.11,3.25Z"/>
    </g>
    <path class="cls-6" d="M620.84,744.72c-13.24,.3-40.92,.11-77.08-4.49,0,0-.02,0-.06-.02-2.74-.78-90.28-26.1-120.92-85.29-16.95-32.76-.3-55.09,18.38-68.62-1.84,1.71-3.68,3.42-5.31,6.2-2.38,4.1-4.39,10.6-4.39,10.6-.39,1.52-.64,2.86-.84,4.36-.19,1.52-.34,3.21-.53,5.49-.07,.91-.17,2.15,.02,3.75,0,0,.24,2.1,1.01,4.14,.54,1.43,16.39,28.06,89.17,33.71,9.66,.74,30.31,1.6,58.92-1.61l41.61,91.79Z"/>
  </g>
  <ellipse class="cls-11" cx="275.19" cy="197.66" rx="17.07" ry="16.06"/>
  <ellipse class="cls-7" cx="276.15" cy="33.84" rx="18.25" ry="34.59" transform="translate(.11 68.58) rotate(-14.16)"/>
  <ellipse class="cls-4" cx="686.97" cy="311.58" rx="16.82" ry="33.91" transform="translate(-16.83 583.02) rotate(-45.49)"/>
  <ellipse class="cls-3" cx="164.83" cy="462.63" rx="35.35" ry="30.81"/>
  <ellipse class="cls-12" cx="499.49" cy="608.89" rx="16.13" ry="15.96"/>
  <ellipse class="cls-13" cx="500.52" cy="789.68" rx="35.35" ry="20.05"/>
</svg>